<svg width="600" height="600" viewbox = "0 0 600 600"  xmlns="http://www.w3.org/2000/svg">
<!--<json>{
  "glyph": "0234,",
  "x0": 300,
  "y0": 300,
  "unit": 189.87491679162073,
  "width": 600,
  "height": 600,
  "style": {
    "color0": "black",
    "fill0": "black",
    "line0": 1,
    "color1": "black",
    "fill1": "black",
    "line1": 5,
    "color2": "red",
    "fill2": "red",
    "line2": 8,
    "color3": "#FF7900",
    "fill3": "#FF7900",
    "line3": 4,
    "color4": "yellow",
    "fill4": "yellow",
    "line4": 4,
    "color5": "green",
    "fill5": "green",
    "line5": 4,
    "color6": "blue",
    "fill6": "blue",
    "line6": 4,
    "color7": "purple",
    "fill7": "purple",
    "line7": 1
  },
  "shapes": [
    "0220:0210,0336,0331,0333,0337,0200,0336,0330,0332,0337,0211,",
    "0221:0336,0210,0210,0306,0312,0330,0335,0335,0350,0335,0337,0362,0203,0335,0335,0335,0335,0203,0335,0335,0335,0335,0203,0363,0334,0336,0331,0304,0313,0211,0211,0337,0320,",
    "0222:0220,0336,0336,0330,0332,0336,0332,0336,0331,0337,0337,",
    "0223:0365,0336,0336,0330,0337,0333,0337,0331,0333,0337,0337,",
    "0224:0220,0325,0221,0222,062,0223,",
    "0225:0220,0325,0335,0335,0221,0335,0335,0222,070,0223,",
    "0226:0220,0326,0221,0222,063,0223,",
    "0227:0220,0326,0335,0335,0221,0335,0335,0222,071,0223,",
    "0230:0220,0322,0334,0221,0335,0222,064,0223,",
    "0231:0220,0322,0335,0221,0334,0222,066,0223,",
    "0232:0220,0336,0336,0325,0347,0337,0337,0320,0222,067,0223,",
    "0233:0220,0336,0336,0336,0331,0333,0337,0200,0336,0330,0330,0310,0337,0330,0335,0350,0310,0335,0337,0322,0362,0203,0335,0203,0335,0203,0335,0203,0335,0203,0335,0203,0335,0203,0335,0203,0363,0320,0334,0334,0336,0331,0313,0304,0310,0337,0313,0336,0331,0332,0337,0337,0337,0222,061,0223,",
    "0234:0332,0230,0333,0333,0231,0330,0332,0224,0331,0331,0225,0333,0227,0330,0330,0226,0332,0332,0233,0331,0331,0232,0330,0333,",
    "01220:0333,0200,0336,0330,0332,0220,0331,0333,0337,",
    "01221:0333,0200,0336,0330,0332,0221,0331,0333,0337,",
    "01222:0333,0200,0336,0330,0332,0336,0330,0332,0336,0341,0331,0331,0333,0333,0337,0337,0336,0330,0335,0330,0335,0335,0201,0334,0201,0201,0334,0201,0334,0331,0333,0337,0337,",
    "01223:0333,0200,0336,0330,0332,0336,0330,0332,0336,0341,0333,0333,0333,0331,0331,0331,0331,0331,0332,0335,0337,0201,0334,0201,0201,0334,0201,0335,0331,0333,0331,0333,0336,0331,0337,0337,0337,",
    "01224:0333,0200,0336,0330,0332,0224,0331,0333,0337,",
    "01225:0333,0200,0336,0330,0332,0225,0331,0333,0337,",
    "01226:0333,0200,0336,0330,0332,0226,0331,0333,0337,",
    "01227:0333,0200,0336,0330,0332,0227,0331,0333,0337,",
    "01230:0333,0200,0336,0330,0332,0230,0331,0333,0337,",
    "01231:0333,0200,0336,0330,0332,0231,0331,0333,0337,",
    "01232:0333,0200,0336,0330,0332,0232,0331,0333,0337,",
    "01233:0333,0200,0336,0330,0332,0233,0331,0333,0337,",
    "01234:0333,0200,0336,0330,0332,0336,0234,0337,0331,0333,0337,",
    "01235:0333,0200,",
    "01236:0333,0200,",
    "01237:0333,0200,",
    "0240:0220,0336,0331,0333,0336,0321,0335,0342,0335,0335,0342,0335,0330,0330,0332,0332,0337,0337,",
    "01240:0333,0200,0336,0330,0332,0210,0240,0211,0333,0331,0337,",
    "0241:0220,0336,0321,0343,0332,0350,0335,0336,0342,0334,0334,0342,0335,0304,0337,0333,0337,",
    "01241:0333,0200,0336,0332,0330,0210,0241,0211,0333,0331,0337,",
    "0242:0220,0321,0336,0343,0333,0336,0350,0335,0342,0334,0334,0342,0335,0337,0304,0332,0337,",
    "01242:0333,0200,0336,0330,0332,0210,0242,0211,0333,0331,0337,",
    "0243:0220,0336,0331,0332,0336,0321,0343,0332,0350,0334,0336,0342,0335,0335,0342,0337,0334,0334,0335,0304,0332,0330,0330,0337,0337,0333,",
    "01243:0333,0200,0336,0330,0332,0210,0243,0211,0333,0331,0337,",
    "0244:0220,0336,0331,0333,0336,0321,0343,0333,0350,0336,0335,0342,0334,0334,0342,0335,0337,0304,0333,0330,0330,0337,0337,0332,",
    "01244:0333,0200,0336,0330,0332,0210,0244,0211,0333,0331,0337,",
    "0245:0210,0332,0332,0362,0335,0203,0203,0203,0203,0334,0203,0363,0332,0332,0331,0211,",
    "01245:0333,0200,0336,0330,0332,0336,0245,0337,0333,0331,0337,",
    "0246:0210,0332,0332,0335,0306,0336,0330,0335,0335,0335,0321,0362,0203,0335,0335,0203,0364,0331,0350,0335,0337,0366,0333,0333,0333,0333,0334,0334,0334,0334,0367,0335,0336,0342,0334,0334,0342,0330,0330,0330,0330,0335,0335,0335,0304,0337,0211,",
    "01246:0333,0200,0336,0330,0332,0336,0246,",
    "0247:0330,0332,0336,0332,0336,0221,0333,0333,0333,0222,0333,0333,0333,0223,0333,0333,0333,0225,0333,0331,0331,0331,0332,0332,0332,0332,0332,0332,0332,0332,0332,0332,0332,0332,0333,0333,0226,0331,0331,0331,0333,0333,0333,0333,0333,0333,0333,0333,0333,0333,0333,0333,0333,0330,0333,0330,0330,0333,0330,0331,0332,0332,0332,0332,0332,0332,0332,0332,0332,0332,0332,0332,0227,0333,0333,0333,0230,0333,0331,0331,0331,0331,0332,0332,0332,0330,0332,0332,0332,0332,0332,0332,0333,0333,0231,0333,0333,0333,0232,0331,0333,0330,0333,0333,0233,0333,0333,0333,0234,0330,0330,0332,0330,0332,0332,0337,0337,",
    "01247:0333,0200,0336,0330,0332,0220,0336,0247,0337,0331,0333,0337,"
  ]
}</json>-->	<path d = "M193 383 L193 217 L27 217 L27 383 L193 383 Z" stroke = "#000000" stroke-width = "1" fill = "none" />	<path d = "M38 300 L146 237 L146 363 L38 300 Z" stroke = "#ff0000" stroke-width = "8" fill = "#ff0000" />	<path d = "M193 383 L193 217 L27 217 L27 383 L193 383 Z" stroke = "#000000" stroke-width = "1" fill = "none" />    <text x="39" y = "264" fill = "#000000" font-size = "47.46872919790517px" font-family = "Arial">4</text>
	<path d = "M573 383 L573 217 L407 217 L407 383 L573 383 Z" stroke = "#000000" stroke-width = "1" fill = "none" />	<path d = "M562 300 L454 363 L454 237 L562 300 Z" stroke = "#ff0000" stroke-width = "8" fill = "#ff0000" />	<path d = "M573 383 L573 217 L407 217 L407 383 L573 383 Z" stroke = "#000000" stroke-width = "1" fill = "none" />    <text x="419" y = "264" fill = "#000000" font-size = "47.46872919790517px" font-family = "Arial">6</text>
	<path d = "M383 193 L383 27 L217 27 L217 193 L383 193 Z" stroke = "#000000" stroke-width = "1" fill = "none" />	<path d = "M300 38 L363 146 L237 146 L300 38 Z" stroke = "#008000" stroke-width = "4" fill = "#008000" />	<path d = "M383 193 L383 27 L217 27 L217 193 L383 193 Z" stroke = "#000000" stroke-width = "1" fill = "none" />    <text x="229" y = "75" fill = "#000000" font-size = "47.46872919790517px" font-family = "Arial">2</text>
	<path d = "M383 573 L383 407 L217 407 L217 573 L383 573 Z" stroke = "#000000" stroke-width = "1" fill = "none" />	<path d = "M300 562 L237 454 L363 454 L300 562 Z" stroke = "#008000" stroke-width = "4" fill = "#008000" />	<path d = "M383 573 L383 407 L217 407 L217 573 L383 573 Z" stroke = "#000000" stroke-width = "1" fill = "none" />    <text x="229" y = "454" fill = "#000000" font-size = "47.46872919790517px" font-family = "Arial">8</text>
	<path d = "M573 573 L573 407 L407 407 L407 573 L573 573 Z" stroke = "#000000" stroke-width = "1" fill = "none" />	<path d = "M490 562 L427 454 L553 454 L490 562 Z" stroke = "#0000ff" stroke-width = "4" fill = "#0000ff" />	<path d = "M573 573 L573 407 L407 407 L407 573 L573 573 Z" stroke = "#000000" stroke-width = "1" fill = "none" />    <text x="419" y = "454" fill = "#000000" font-size = "47.46872919790517px" font-family = "Arial">9</text>
	<path d = "M573 193 L573 27 L407 27 L407 193 L573 193 Z" stroke = "#000000" stroke-width = "1" fill = "none" />	<path d = "M490 38 L553 146 L427 146 L490 38 Z" stroke = "#0000ff" stroke-width = "4" fill = "#0000ff" />	<path d = "M573 193 L573 27 L407 27 L407 193 L573 193 Z" stroke = "#000000" stroke-width = "1" fill = "none" />    <text x="419" y = "75" fill = "#000000" font-size = "47.46872919790517px" font-family = "Arial">3</text>
	<path d = "M193 193 L193 27 L27 27 L27 193 L193 193 Z" stroke = "#000000" stroke-width = "1" fill = "none" />	<path d = "M134 134 L134 86 L86 86 L86 134 L134 134 Z" stroke = "#000000" stroke-width = "1" fill = "none" />	<path d = "M134 53 L167 86 L167 134 L134 167 L86 167 L53 134 L53 86 L86 53 L134 53 Z" stroke = "#ff0000" stroke-width = "8" fill = "#ff0000" />	<path d = "M193 193 L193 27 L27 27 L27 193 L193 193 Z" stroke = "#000000" stroke-width = "1" fill = "none" />    <text x="39" y = "75" fill = "#000000" font-size = "47.468729197905176px" font-family = "Arial">1</text>
	<path d = "M193 573 L193 407 L27 407 L27 573 L193 573 Z" stroke = "#000000" stroke-width = "1" fill = "none" />    <circle cx="110" cy = "490" r = "47.468729197905176" stroke = "#008000" stroke-width = "4" fill = "#008000" />
	<path d = "M193 573 L193 407 L27 407 L27 573 L193 573 Z" stroke = "#000000" stroke-width = "1" fill = "none" />    <text x="39" y = "454" fill = "#000000" font-size = "47.468729197905176px" font-family = "Arial">7</text>
</svg>